# xmcd CD database file
#
# Track frame offsets:
#	150
#	32372
#	54986
#	82064
#	109781
#	140099
#	168613
#	198392
#	227255
#
# Disc length: 3408 seconds
#
# Revision: 0
# Processed by: cddbd v1.5.2PL0 Copyright (c) Steve Scherf et al.
# Submitted via: jetAudio 7
#
DISCID=700d4e09
DTITLE=張維良  - of Heaven and Earth 問天
DYEAR=1900
DGENRE=Instrumental
TTITLE0=問天 Of Heaven and Earth
TTITLE1=駝道 Caravan
TTITLE2=秋風· Autumn Breeze
TTITLE3=鍋莊 Guozhuang - Tibetan Bonfire Dance
TTITLE4=飄零 Lament of the Refugees
TTITLE5=相和 Concord
TTITLE6=羅衣 Grace
TTITLE7=蒼莽 Wilderness
TTITLE8=晨喧 Morning Chirps
EXTD=
EXTT0=
EXTT1=
EXTT2=
EXTT3=
EXTT4=
EXTT5=
EXTT6=
EXTT7=
EXTT8=
PLAYORDER=
